<svg id="visual" viewBox="0 0 1920 1080" width="1920" height="1080" xmlns="http://www.w3.org/2000/svg" xmlns:xlink="http://www.w3.org/1999/xlink" version="1.1"><g stroke-width="1" stroke-linejoin="bevel"><path d="M968 548L964 427L836.9 536Z" fill="#0c304b" stroke="#0c304b"></path><path d="M964 427L841.9 409L836.9 536Z" fill="#0b2c46" stroke="#0b2c46"></path><path d="M707.7 534L829.9 653L836.9 536Z" fill="#0d3451" stroke="#0d3451"></path><path d="M836.9 536L829.9 653L968 548Z" fill="#0e4161" stroke="#0e4161"></path><path d="M829.9 653L960 674L968 548Z" fill="#0e4566" stroke="#0e4566"></path><path d="M1117.1 552L1083.1 405L968 548Z" fill="#0d3856" stroke="#0d3856"></path><path d="M968 548L1083.1 405L964 427Z" fill="#0c304b" stroke="#0c304b"></path><path d="M964 427L964 247L841.9 409Z" fill="#0d4e71" stroke="#0d4e71"></path><path d="M841.9 409L707.7 534L836.9 536Z" fill="#0d3451" stroke="#0d3451"></path><path d="M1087.1 652L1117.1 552L968 548Z" fill="#0e4161" stroke="#0e4161"></path><path d="M841.9 409L683.7 420L707.7 534Z" fill="#0e3d5c" stroke="#0e3d5c"></path><path d="M960 674L1087.1 652L968 548Z" fill="#0c5277" stroke="#0c5277"></path><path d="M1083.1 405L964 247L964 427Z" fill="#0e4566" stroke="#0e4566"></path><path d="M841.9 409L835.9 248L683.7 420Z" fill="#0d4e71" stroke="#0d4e71"></path><path d="M964 247L835.9 248L841.9 409Z" fill="#0e3d5c" stroke="#0e3d5c"></path><path d="M1231.3 271L1098.1 267L1083.1 405Z" fill="#0e3d5c" stroke="#0e3d5c"></path><path d="M1083.1 405L1098.1 267L964 247Z" fill="#0b2c46" stroke="#0b2c46"></path><path d="M830.9 790L937 796L960 674Z" fill="#0d4e71" stroke="#0d4e71"></path><path d="M960 674L1113.1 796L1087.1 652Z" fill="#0d3856" stroke="#0d3856"></path><path d="M830.9 790L960 674L829.9 653Z" fill="#0d3856" stroke="#0d3856"></path><path d="M675.7 696L830.9 790L829.9 653Z" fill="#0d4e71" stroke="#0d4e71"></path><path d="M558.6 658L675.7 696L707.7 534Z" fill="#0d3451" stroke="#0d3451"></path><path d="M707.7 534L675.7 696L829.9 653Z" fill="#0d4e71" stroke="#0d4e71"></path><path d="M1211.3 688L1243.3 531L1117.1 552Z" fill="#0e4566" stroke="#0e4566"></path><path d="M1117.1 552L1240.3 415L1083.1 405Z" fill="#0c304b" stroke="#0c304b"></path><path d="M1211.3 688L1117.1 552L1087.1 652Z" fill="#0e4a6c" stroke="#0e4a6c"></path><path d="M835.9 248L663.7 252L683.7 420Z" fill="#0e4161" stroke="#0e4161"></path><path d="M683.7 420L526.6 519L707.7 534Z" fill="#0d4e71" stroke="#0d4e71"></path><path d="M1243.3 531L1240.3 415L1117.1 552Z" fill="#0d4e71" stroke="#0d4e71"></path><path d="M964 247L831.9 136L835.9 248Z" fill="#0e4a6c" stroke="#0e4a6c"></path><path d="M835.9 248L680.7 126L663.7 252Z" fill="#0c304b" stroke="#0c304b"></path><path d="M961 126L831.9 136L964 247Z" fill="#0b2c46" stroke="#0b2c46"></path><path d="M1113.1 796L1211.3 688L1087.1 652Z" fill="#0b577c" stroke="#0b577c"></path><path d="M1098.1 140L961 126L964 247Z" fill="#0e3d5c" stroke="#0e3d5c"></path><path d="M546.6 265L543.6 427L683.7 420Z" fill="#0c5277" stroke="#0c5277"></path><path d="M937 796L1113.1 796L960 674Z" fill="#0d4e71" stroke="#0d4e71"></path><path d="M543.6 427L526.6 519L683.7 420Z" fill="#0d3451" stroke="#0d3451"></path><path d="M526.6 519L558.6 658L707.7 534Z" fill="#0d3451" stroke="#0d3451"></path><path d="M675.7 696L671.7 821L830.9 790Z" fill="#0c304b" stroke="#0c304b"></path><path d="M1240.3 415L1231.3 271L1083.1 405Z" fill="#0c5277" stroke="#0c5277"></path><path d="M1098.1 267L1098.1 140L964 247Z" fill="#0b577c" stroke="#0b577c"></path><path d="M1231.3 271L1098.1 140L1098.1 267Z" fill="#0e4161" stroke="#0e4161"></path><path d="M559.6 799L671.7 821L675.7 696Z" fill="#0d3856" stroke="#0d3856"></path><path d="M830.9 790L816.9 954L937 796Z" fill="#0d3451" stroke="#0d3451"></path><path d="M937 796L1094.1 925L1113.1 796Z" fill="#0e4566" stroke="#0e4566"></path><path d="M552.6 127L546.6 265L663.7 252Z" fill="#0c5277" stroke="#0c5277"></path><path d="M663.7 252L546.6 265L683.7 420Z" fill="#0b2c46" stroke="#0b2c46"></path><path d="M543.6 427L430.4 384L526.6 519Z" fill="#0b2c46" stroke="#0b2c46"></path><path d="M831.9 136L680.7 126L835.9 248Z" fill="#0d3856" stroke="#0d3856"></path><path d="M825.9 0L680.7 126L831.9 136Z" fill="#0c304b" stroke="#0c304b"></path><path d="M1369.4 674L1357.4 539L1243.3 531Z" fill="#0c5277" stroke="#0c5277"></path><path d="M1243.3 531L1357.4 539L1240.3 415Z" fill="#0e4161" stroke="#0e4161"></path><path d="M1240.3 415L1349.4 292L1231.3 271Z" fill="#0e4a6c" stroke="#0e4a6c"></path><path d="M1369.4 674L1243.3 531L1211.3 688Z" fill="#0c5277" stroke="#0c5277"></path><path d="M1230.3 945L1246.3 793L1113.1 796Z" fill="#0d4e71" stroke="#0d4e71"></path><path d="M1113.1 796L1246.3 793L1211.3 688Z" fill="#0e3d5c" stroke="#0e3d5c"></path><path d="M558.6 658L559.6 799L675.7 696Z" fill="#0c5277" stroke="#0c5277"></path><path d="M416.4 696L559.6 799L558.6 658Z" fill="#0d4e71" stroke="#0d4e71"></path><path d="M691.7 924L830.9 790L671.7 821Z" fill="#0d3451" stroke="#0d3451"></path><path d="M691.7 924L816.9 954L830.9 790Z" fill="#0d3451" stroke="#0d3451"></path><path d="M948 965L1094.1 925L937 796Z" fill="#0e3d5c" stroke="#0e3d5c"></path><path d="M1357.4 539L1378.4 420L1240.3 415Z" fill="#0d3451" stroke="#0d3451"></path><path d="M816.9 954L948 965L937 796Z" fill="#0c5277" stroke="#0c5277"></path><path d="M1378.4 420L1349.4 292L1240.3 415Z" fill="#0c304b" stroke="#0c304b"></path><path d="M1231.3 271L1249.3 132L1098.1 140Z" fill="#0e4161" stroke="#0e4161"></path><path d="M547.6 964L691.7 924L671.7 821Z" fill="#0d3451" stroke="#0d3451"></path><path d="M414.4 247L430.4 384L546.6 265Z" fill="#0b577c" stroke="#0b577c"></path><path d="M546.6 265L430.4 384L543.6 427Z" fill="#0d4e71" stroke="#0d4e71"></path><path d="M526.6 519L403.4 552L558.6 658Z" fill="#0e4a6c" stroke="#0e4a6c"></path><path d="M1076.1 0L977 0L961 126Z" fill="#0e3d5c" stroke="#0e3d5c"></path><path d="M961 126L825.9 0L831.9 136Z" fill="#0e4161" stroke="#0e4161"></path><path d="M1076.1 0L961 126L1098.1 140Z" fill="#0c5277" stroke="#0c5277"></path><path d="M1371.4 156L1249.3 132L1231.3 271Z" fill="#0b2c46" stroke="#0b2c46"></path><path d="M977 0L825.9 0L961 126Z" fill="#0b577c" stroke="#0b577c"></path><path d="M1246.3 793L1369.4 674L1211.3 688Z" fill="#0e4a6c" stroke="#0e4a6c"></path><path d="M1357.4 539L1511.6 538L1378.4 420Z" fill="#0b2c46" stroke="#0b2c46"></path><path d="M546.6 0L552.6 127L680.7 126Z" fill="#0e3d5c" stroke="#0e3d5c"></path><path d="M680.7 126L552.6 127L663.7 252Z" fill="#0c5277" stroke="#0c5277"></path><path d="M430.4 384L403.4 552L526.6 519Z" fill="#0d3451" stroke="#0d3451"></path><path d="M1223.3 0L1076.1 0L1098.1 140Z" fill="#0e4a6c" stroke="#0e4a6c"></path><path d="M403.4 552L416.4 696L558.6 658Z" fill="#0b577c" stroke="#0b577c"></path><path d="M559.6 799L547.6 964L671.7 821Z" fill="#0e4161" stroke="#0e4161"></path><path d="M825.9 0L692.7 0L680.7 126Z" fill="#0c304b" stroke="#0c304b"></path><path d="M432.4 139L414.4 247L546.6 265Z" fill="#0b2c46" stroke="#0b2c46"></path><path d="M278.3 386L284.3 558L403.4 552Z" fill="#0e4566" stroke="#0e4566"></path><path d="M432.4 139L546.6 265L552.6 127Z" fill="#0e4161" stroke="#0e4161"></path><path d="M1365.4 946L1372.4 796L1246.3 793Z" fill="#0e4566" stroke="#0e4566"></path><path d="M1246.3 793L1372.4 796L1369.4 674Z" fill="#0b577c" stroke="#0b577c"></path><path d="M1369.4 674L1488.6 652L1357.4 539Z" fill="#0d3451" stroke="#0d3451"></path><path d="M1094.1 925L1230.3 945L1113.1 796Z" fill="#0e4a6c" stroke="#0e4a6c"></path><path d="M1086.1 1080L1230.3 945L1094.1 925Z" fill="#0d3856" stroke="#0d3856"></path><path d="M1349.4 292L1371.4 156L1231.3 271Z" fill="#0e4161" stroke="#0e4161"></path><path d="M1249.3 132L1223.3 0L1098.1 140Z" fill="#0e4566" stroke="#0e4566"></path><path d="M1512.6 252L1371.4 156L1349.4 292Z" fill="#0e4566" stroke="#0e4566"></path><path d="M1359.4 0L1223.3 0L1249.3 132Z" fill="#0e4a6c" stroke="#0e4a6c"></path><path d="M284.3 823L412.4 801L416.4 696Z" fill="#0e4161" stroke="#0e4161"></path><path d="M416.4 696L412.4 801L559.6 799Z" fill="#0b2c46" stroke="#0b2c46"></path><path d="M546.6 0L432.4 139L552.6 127Z" fill="#0e4566" stroke="#0e4566"></path><path d="M830.9 1080L956 1080L948 965Z" fill="#0e3d5c" stroke="#0e3d5c"></path><path d="M948 965L1086.1 1080L1094.1 925Z" fill="#0e4161" stroke="#0e4161"></path><path d="M830.9 1080L948 965L816.9 954Z" fill="#0d3451" stroke="#0d3451"></path><path d="M830.9 1080L816.9 954L703.7 1080Z" fill="#0e3d5c" stroke="#0e3d5c"></path><path d="M422.4 934L547.6 964L559.6 799Z" fill="#0d3856" stroke="#0d3856"></path><path d="M703.7 1080L816.9 954L691.7 924Z" fill="#0e4566" stroke="#0e4566"></path><path d="M1496.6 796L1488.6 652L1369.4 674Z" fill="#0b2c46" stroke="#0b2c46"></path><path d="M1378.4 420L1509.6 415L1349.4 292Z" fill="#0d3856" stroke="#0d3856"></path><path d="M1488.6 652L1511.6 538L1357.4 539Z" fill="#0d3856" stroke="#0d3856"></path><path d="M1511.6 538L1509.6 415L1378.4 420Z" fill="#0e4a6c" stroke="#0e4a6c"></path><path d="M692.7 0L546.6 0L680.7 126Z" fill="#0d3451" stroke="#0d3451"></path><path d="M956 1080L1086.1 1080L948 965Z" fill="#0d3451" stroke="#0d3451"></path><path d="M547.6 964L703.7 1080L691.7 924Z" fill="#0c304b" stroke="#0c304b"></path><path d="M278.3 386L403.4 552L430.4 384Z" fill="#0e4161" stroke="#0e4161"></path><path d="M403.4 552L284.3 558L416.4 696Z" fill="#0b577c" stroke="#0b577c"></path><path d="M278.3 386L430.4 384L414.4 247Z" fill="#0e4161" stroke="#0e4161"></path><path d="M260.3 286L278.3 386L414.4 247Z" fill="#0e4566" stroke="#0e4566"></path><path d="M1230.3 945L1365.4 946L1246.3 793Z" fill="#0c5277" stroke="#0c5277"></path><path d="M1372.4 796L1496.6 796L1369.4 674Z" fill="#0b2c46" stroke="#0b2c46"></path><path d="M1256.3 1080L1365.4 946L1230.3 945Z" fill="#0e4161" stroke="#0e4161"></path><path d="M1525.6 112L1512.6 252L1637.7 125Z" fill="#0c304b" stroke="#0c304b"></path><path d="M1509.6 415L1512.6 252L1349.4 292Z" fill="#0e4566" stroke="#0e4566"></path><path d="M1371.4 156L1359.4 0L1249.3 132Z" fill="#0c5277" stroke="#0c5277"></path><path d="M412.4 801L422.4 934L559.6 799Z" fill="#0c5277" stroke="#0c5277"></path><path d="M547.6 964L568.6 1080L703.7 1080Z" fill="#0c304b" stroke="#0c304b"></path><path d="M284.3 823L422.4 934L412.4 801Z" fill="#0d3451" stroke="#0d3451"></path><path d="M1365.4 946L1496.6 796L1372.4 796Z" fill="#0e4566" stroke="#0e4566"></path><path d="M1488.6 652L1627.7 657L1511.6 538Z" fill="#0b2c46" stroke="#0b2c46"></path><path d="M1525.6 112L1359.4 0L1371.4 156Z" fill="#0c5277" stroke="#0c5277"></path><path d="M134.1 553L264.3 683L284.3 558Z" fill="#0d3856" stroke="#0d3856"></path><path d="M284.3 558L264.3 683L416.4 696Z" fill="#0e4566" stroke="#0e4566"></path><path d="M252.3 138L260.3 286L414.4 247Z" fill="#0e4161" stroke="#0e4161"></path><path d="M120.1 414L134.1 553L284.3 558Z" fill="#0e4a6c" stroke="#0e4a6c"></path><path d="M252.3 138L414.4 247L432.4 139Z" fill="#0e4a6c" stroke="#0e4a6c"></path><path d="M391.4 1080L568.6 1080L547.6 964Z" fill="#0e4566" stroke="#0e4566"></path><path d="M1086.1 1080L1256.3 1080L1230.3 945Z" fill="#0c304b" stroke="#0c304b"></path><path d="M1640.7 789L1627.7 657L1496.6 796Z" fill="#0d3856" stroke="#0d3856"></path><path d="M546.6 0L405.4 0L432.4 139Z" fill="#0c5277" stroke="#0c5277"></path><path d="M264.3 683L284.3 823L416.4 696Z" fill="#0c304b" stroke="#0c304b"></path><path d="M422.4 934L391.4 1080L547.6 964Z" fill="#0d4e71" stroke="#0d4e71"></path><path d="M1512.6 252L1525.6 112L1371.4 156Z" fill="#0e4566" stroke="#0e4566"></path><path d="M1645.7 396L1512.6 252L1509.6 415Z" fill="#0e3d5c" stroke="#0e3d5c"></path><path d="M1496.6 796L1627.7 657L1488.6 652Z" fill="#0e4161" stroke="#0e4161"></path><path d="M1658.7 537L1645.7 396L1509.6 415Z" fill="#0e3d5c" stroke="#0e3d5c"></path><path d="M1520.6 957L1496.6 796L1365.4 946Z" fill="#0e4566" stroke="#0e4566"></path><path d="M405.4 0L252.3 138L432.4 139Z" fill="#0d3856" stroke="#0d3856"></path><path d="M120.1 414L284.3 558L278.3 386Z" fill="#0e4161" stroke="#0e4161"></path><path d="M1658.7 537L1509.6 415L1511.6 538Z" fill="#0e4a6c" stroke="#0e4a6c"></path><path d="M1256.3 1080L1366.4 1080L1365.4 946Z" fill="#0b2c46" stroke="#0b2c46"></path><path d="M1627.7 657L1658.7 537L1511.6 538Z" fill="#0b577c" stroke="#0b577c"></path><path d="M148.1 810L291.3 946L284.3 823Z" fill="#0c304b" stroke="#0c304b"></path><path d="M284.3 823L291.3 946L422.4 934Z" fill="#0b2c46" stroke="#0b2c46"></path><path d="M1508.6 1080L1520.6 957L1365.4 946Z" fill="#0e3d5c" stroke="#0e3d5c"></path><path d="M146.1 282L278.3 386L260.3 286Z" fill="#0e4566" stroke="#0e4566"></path><path d="M264.3 683L148.1 810L284.3 823Z" fill="#0e4161" stroke="#0e4161"></path><path d="M134.1 553L152.1 687L264.3 683Z" fill="#0e3d5c" stroke="#0e3d5c"></path><path d="M1655.7 0L1517.6 0L1525.6 112Z" fill="#0c304b" stroke="#0c304b"></path><path d="M1525.6 112L1517.6 0L1359.4 0Z" fill="#0c304b" stroke="#0c304b"></path><path d="M291.3 946L391.4 1080L422.4 934Z" fill="#0d3856" stroke="#0d3856"></path><path d="M1787.9 401L1661.7 263L1645.7 396Z" fill="#0e4161" stroke="#0e4161"></path><path d="M1645.7 396L1661.7 263L1512.6 252Z" fill="#0c5277" stroke="#0c5277"></path><path d="M252.3 138L146.1 282L260.3 286Z" fill="#0e3d5c" stroke="#0e3d5c"></path><path d="M146.1 282L120.1 414L278.3 386Z" fill="#0b2c46" stroke="#0b2c46"></path><path d="M1627.7 657L1767.9 552L1658.7 537Z" fill="#0c5277" stroke="#0c5277"></path><path d="M1637.7 935L1640.7 789L1496.6 796Z" fill="#0e4a6c" stroke="#0e4a6c"></path><path d="M405.4 0L258.3 0L252.3 138Z" fill="#0d4e71" stroke="#0d4e71"></path><path d="M252.3 138L132.1 150L146.1 282Z" fill="#0c304b" stroke="#0c304b"></path><path d="M1661.7 263L1637.7 125L1512.6 252Z" fill="#0d3856" stroke="#0d3856"></path><path d="M0 682L152.1 687L134.1 553Z" fill="#0c304b" stroke="#0c304b"></path><path d="M0 682L148.1 810L152.1 687Z" fill="#0e4161" stroke="#0e4161"></path><path d="M152.1 687L148.1 810L264.3 683Z" fill="#0c5277" stroke="#0c5277"></path><path d="M291.3 946L286.3 1080L391.4 1080Z" fill="#0c5277" stroke="#0c5277"></path><path d="M1366.4 1080L1508.6 1080L1365.4 946Z" fill="#0e4161" stroke="#0e4161"></path><path d="M1520.6 957L1637.7 935L1496.6 796Z" fill="#0d3451" stroke="#0d3451"></path><path d="M0 398L0 528L120.1 414Z" fill="#0d4e71" stroke="#0d4e71"></path><path d="M115.1 0L132.1 150L252.3 138Z" fill="#0e4161" stroke="#0e4161"></path><path d="M1639.7 1080L1637.7 935L1520.6 957Z" fill="#0e3d5c" stroke="#0e3d5c"></path><path d="M1762.9 693L1767.9 552L1627.7 657Z" fill="#0d4e71" stroke="#0d4e71"></path><path d="M141.1 1080L286.3 1080L291.3 946Z" fill="#0e3d5c" stroke="#0e3d5c"></path><path d="M1762.9 693L1627.7 657L1640.7 789Z" fill="#0e4161" stroke="#0e4161"></path><path d="M1658.7 537L1787.9 401L1645.7 396Z" fill="#0e4161" stroke="#0e4161"></path><path d="M1661.7 263L1794.9 123L1637.7 125Z" fill="#0b2c46" stroke="#0b2c46"></path><path d="M1780.9 809L1762.9 693L1640.7 789Z" fill="#0e3d5c" stroke="#0e3d5c"></path><path d="M1920 534L1787.9 401L1767.9 552Z" fill="#0d3856" stroke="#0d3856"></path><path d="M1767.9 552L1787.9 401L1658.7 537Z" fill="#0d3451" stroke="#0d3451"></path><path d="M1637.7 125L1655.7 0L1525.6 112Z" fill="#0b577c" stroke="#0b577c"></path><path d="M1771.9 0L1655.7 0L1637.7 125Z" fill="#0e4161" stroke="#0e4161"></path><path d="M120.1 414L0 528L134.1 553Z" fill="#0d4e71" stroke="#0d4e71"></path><path d="M148.1 810L119.1 949L291.3 946Z" fill="#0d4e71" stroke="#0d4e71"></path><path d="M0 398L120.1 414L146.1 282Z" fill="#0e3d5c" stroke="#0e3d5c"></path><path d="M1787.9 401L1785.9 259L1661.7 263Z" fill="#0d3856" stroke="#0d3856"></path><path d="M0 248L0 398L146.1 282Z" fill="#0b2c46" stroke="#0b2c46"></path><path d="M0 814L119.1 949L148.1 810Z" fill="#0e3d5c" stroke="#0e3d5c"></path><path d="M0 528L0 682L134.1 553Z" fill="#0e4a6c" stroke="#0e4a6c"></path><path d="M1637.7 935L1780.9 809L1640.7 789Z" fill="#0b577c" stroke="#0b577c"></path><path d="M1920 690L1920 534L1767.9 552Z" fill="#0e4566" stroke="#0e4566"></path><path d="M1803.9 954L1780.9 809L1637.7 935Z" fill="#0e4a6c" stroke="#0e4a6c"></path><path d="M258.3 0L115.1 0L252.3 138Z" fill="#0c304b" stroke="#0c304b"></path><path d="M132.1 150L0 248L146.1 282Z" fill="#0e4a6c" stroke="#0e4a6c"></path><path d="M0 157L0 248L132.1 150Z" fill="#0b577c" stroke="#0b577c"></path><path d="M1508.6 1080L1639.7 1080L1520.6 957Z" fill="#0e4a6c" stroke="#0e4a6c"></path><path d="M1920 384L1785.9 259L1787.9 401Z" fill="#0c304b" stroke="#0c304b"></path><path d="M1920 147L1794.9 123L1785.9 259Z" fill="#0d3451" stroke="#0d3451"></path><path d="M1785.9 259L1794.9 123L1661.7 263Z" fill="#0c304b" stroke="#0c304b"></path><path d="M0 682L0 814L148.1 810Z" fill="#0e3d5c" stroke="#0e3d5c"></path><path d="M115.1 0L0 157L132.1 150Z" fill="#0e4a6c" stroke="#0e4a6c"></path><path d="M0 1080L141.1 1080L119.1 949Z" fill="#0e4566" stroke="#0e4566"></path><path d="M119.1 949L141.1 1080L291.3 946Z" fill="#0d3451" stroke="#0d3451"></path><path d="M1794.9 123L1771.9 0L1637.7 125Z" fill="#0c5277" stroke="#0c5277"></path><path d="M1639.7 1080L1803.9 954L1637.7 935Z" fill="#0e4566" stroke="#0e4566"></path><path d="M1920 690L1767.9 552L1762.9 693Z" fill="#0c304b" stroke="#0c304b"></path><path d="M1920 690L1762.9 693L1780.9 809Z" fill="#0d4e71" stroke="#0d4e71"></path><path d="M1794.9 123L1920 0L1771.9 0Z" fill="#0d3451" stroke="#0d3451"></path><path d="M0 814L0 942L119.1 949Z" fill="#0e4a6c" stroke="#0e4a6c"></path><path d="M1920 534L1920 384L1787.9 401Z" fill="#0e4161" stroke="#0e4161"></path><path d="M115.1 0L0 0L0 157Z" fill="#0d4e71" stroke="#0d4e71"></path><path d="M1920 796L1920 690L1780.9 809Z" fill="#0b2c46" stroke="#0b2c46"></path><path d="M1920 384L1920 264L1785.9 259Z" fill="#0e4161" stroke="#0e4161"></path><path d="M1803.9 954L1920 796L1780.9 809Z" fill="#0b577c" stroke="#0b577c"></path><path d="M1639.7 1080L1794.9 1080L1803.9 954Z" fill="#0c5277" stroke="#0c5277"></path><path d="M1803.9 954L1920 952L1920 796Z" fill="#0b577c" stroke="#0b577c"></path><path d="M1920 264L1920 147L1785.9 259Z" fill="#0d3451" stroke="#0d3451"></path><path d="M0 942L0 1080L119.1 949Z" fill="#0e4566" stroke="#0e4566"></path><path d="M1920 1080L1920 952L1803.9 954Z" fill="#0e4a6c" stroke="#0e4a6c"></path><path d="M1920 147L1920 0L1794.9 123Z" fill="#0d4e71" stroke="#0d4e71"></path><path d="M1794.9 1080L1920 1080L1803.9 954Z" fill="#0b577c" stroke="#0b577c"></path></g></svg>